<svg xmlns="http://www.w3.org/2000/svg" viewBox="0 0 538.5 257.46"><defs><style>.cls-1{fill:#00aeab;}.cls-2,.cls-3{fill:none;stroke:#000;stroke-miterlimit:10;}.cls-2{stroke-width:4px;}.cls-3{stroke-width:2px;}</style></defs><title>Ac</title><g id="Capa_3" data-name="Capa 3"><rect class="cls-1" x="12.49" width="368.21" height="121.18" rx="12" ry="12"/></g><g id="Capa_2" data-name="Capa 2"><rect class="cls-2" x="2" y="10.49" width="368.21" height="121.18" rx="12" ry="12"/><line class="cls-3" x1="250.19" y1="30.3" x2="343.41" y2="30.3"/><line class="cls-3" x1="250.19" y1="44.28" x2="343.41" y2="44.28"/><rect class="cls-3" x="35.79" y="69.91" width="307.61" height="34.96"/><line class="cls-3" x1="45.11" y1="86.23" x2="327.09" y2="86.23"/></g><g id="Capa_4" data-name="Capa 4"><line class="cls-3" x1="91.72" y1="151.48" x2="91.72" y2="191.09"/><line class="cls-3" x1="110.36" y1="151.48" x2="110.36" y2="223.72"/><line class="cls-3" x1="126.68" y1="151.48" x2="126.68" y2="209.74"/><line class="cls-3" x1="145.32" y1="151.48" x2="145.32" y2="177.11"/><line class="cls-3" x1="320.1" y1="151.48" x2="320.1" y2="191.09"/><line class="cls-3" x1="337.26" y1="163.71" x2="302.95" y2="183.52"/><line class="cls-3" x1="305.28" y1="163.71" x2="339.59" y2="183.52"/><path d="M314.6,339.94a7.26,7.26,0,0,1,3.84,1,11,11,0,0,1,2.73,2.31,9.69,9.69,0,0,1,1.68,2.86,8.07,8.07,0,0,1,.56,2.66c0,.19-.87,2.05-2.59,5.59s-3.92,8-6.57,13.5-5.51,11.44-8.53,18-5.88,12.87-8.53,19-4.85,11.74-6.57,16.78-2.59,8.71-2.59,11a2.21,2.21,0,0,1-.35,1.4q-.35.42-1.89.42a4.61,4.61,0,0,1-2.44-.84,11,11,0,0,1-2.52-2.23,13.75,13.75,0,0,1-2-3.29,9.72,9.72,0,0,1-.84-4q0-2,2.1-8.11t5.59-14.54q-4,.29-9,.7t-9.57.84q-5.46,6.15-10.7,11.61t-9.86,9.5a71.62,71.62,0,0,1-8.32,6.44c-2.47,1.58-4.49,2.37-6.08,2.37a6,6,0,0,1-4.34-1.46,8.47,8.47,0,0,1-2.16-3.22A8.32,8.32,0,0,1,225,425c.05-1,.3-1.46.77-1.46s.6.09.7.28a6.47,6.47,0,0,1,.28.69,2.29,2.29,0,0,0,.35.7c.14.19.48.28,1,.28a10.28,10.28,0,0,0,4.69-1.6,46,46,0,0,0,6.43-4.55q3.57-2.94,7.69-6.92t8.6-8.6a7.08,7.08,0,0,1-1.33.14h-1a3.32,3.32,0,0,1-2.79-1.54,10,10,0,0,1-1.61-3.28,8.9,8.9,0,0,1-.35-3.29c.09-1,.37-1.54.84-1.54a1.56,1.56,0,0,1,.84.28,5.11,5.11,0,0,0,1.53.56,28.77,28.77,0,0,0,3.22.56,45,45,0,0,0,5.73.28H263q5.46-6,10.91-12.37t10.48-12.38q5-6,9.37-11.39t7.55-9.44q3.22-4.05,5.11-6.5c1.25-1.63,1.93-2.5,2-2.59a3.06,3.06,0,0,1,2.94-1.54q2,0,2.52.84C314.18,340.17,314.41,339.94,314.6,339.94Zm-41.39,55.93h14.68q2.24-5.44,4.75-11.12l5-11.18q2.44-5.52,4.82-10.7t4.48-9.37l-6.72,8.95q-3.76,5-8.11,10.56t-9.15,11.32Q278.1,390.14,273.21,395.87Z" transform="translate(-124.5 -177)"/><path d="M362.7,349.73c-1.5,0-3.5,1-6,3.08A68.07,68.07,0,0,0,348.5,361a117.39,117.39,0,0,0-8.8,11.75,136.43,136.43,0,0,0-8.05,13.84,95.1,95.1,0,0,0-5.87,14.33,44.28,44.28,0,0,0-2.24,13.15,11.53,11.53,0,0,0,1.89,6.57,6.37,6.37,0,0,0,5.66,2.8,12.12,12.12,0,0,0,4.9-1.19,35.82,35.82,0,0,0,5.45-3.08,69.61,69.61,0,0,0,5.73-4.33q2.94-2.44,5.6-5,6.28-6,12.86-13.56a1.59,1.59,0,0,1,1.26-.7,1.49,1.49,0,0,1,1.33.84,1.58,1.58,0,0,1-.21,1.82q-7.56,10.06-14.82,18-3.09,3.36-6.29,6.65a72,72,0,0,1-6.37,5.8,39.16,39.16,0,0,1-6,4,11,11,0,0,1-5.1,1.54,28.77,28.77,0,0,1-7.2-.91,15,15,0,0,1-6.44-3.49,18.37,18.37,0,0,1-4.61-7.06,32.55,32.55,0,0,1-1.75-11.61,46.26,46.26,0,0,1,2.52-14.19,100.08,100.08,0,0,1,6.71-15.73,137.65,137.65,0,0,1,9.51-15.45,124.59,124.59,0,0,1,10.77-13.29,62.88,62.88,0,0,1,10.69-9.29q5.25-3.49,9.16-3.5a12.94,12.94,0,0,1,5.31,1.19,21.82,21.82,0,0,1,4.76,2.87,17.29,17.29,0,0,1,3.42,3.56,6,6,0,0,1,1.33,3.29,25.08,25.08,0,0,1-2,9.16,57.6,57.6,0,0,1-4.68,9.36,42.24,42.24,0,0,1-5.59,7.34q-2.88,2.94-4.69,2.94a4.57,4.57,0,0,1-2.58-.77,7.12,7.12,0,0,1-1.89-1.68,2.39,2.39,0,0,1-.63-1.67c.05-.52.44-.77,1.19-.77.93,0,2-.61,3.28-1.82a31.32,31.32,0,0,0,3.85-4.62,47.11,47.11,0,0,0,3.56-6,26.65,26.65,0,0,0,2.24-6,9.13,9.13,0,0,0,.07-4.61C365.4,350.34,364.37,349.73,362.7,349.73Z" transform="translate(-124.5 -177)"/><path d="M402.13,423.42a10.94,10.94,0,0,1-3.29-.77,18.49,18.49,0,0,1-4.4-2.31,14.52,14.52,0,0,1-3.85-3.92A9.5,9.5,0,0,1,389,411a27,27,0,0,1,2.52-10.14,67.06,67.06,0,0,1,6.15-11.32,49.69,49.69,0,0,1,7.83-9.16c2.8-2.52,5.31-3.78,7.55-3.78a13.19,13.19,0,0,1,5,1,17.26,17.26,0,0,1,4.12,2.38,13.1,13.1,0,0,1,2.8,3,5.39,5.39,0,0,1,1.05,2.72,10.28,10.28,0,0,1-1,4.06,26.88,26.88,0,0,1-2.31,4.19,22.57,22.57,0,0,1-2.66,3.29,3.61,3.61,0,0,1-2.16,1.33,3.46,3.46,0,0,1-2-.63,6.63,6.63,0,0,1-1.47-1.33,1.83,1.83,0,0,1-.49-1.33c.05-.42.35-.63.91-.63s1.33-.56,2.31-1.68a15.55,15.55,0,0,0,2.44-3.77,13,13,0,0,0,1.19-3.78c.14-1.11-.35-1.67-1.47-1.67s-2.82.9-4.82,2.72a37.92,37.92,0,0,0-5.87,7,50.5,50.5,0,0,0-5,9.58,28.41,28.41,0,0,0-2.09,10.49c0,1.86.88,2.79,2.65,2.79a14.69,14.69,0,0,0,6.92-1.88,42.31,42.31,0,0,0,7.13-4.83,67.3,67.3,0,0,0,6.86-6.5c2.19-2.38,4.17-4.63,5.94-6.78a1.71,1.71,0,0,1,1.4-.7,1.35,1.35,0,0,1,1.26.84,1.7,1.7,0,0,1-.28,1.82c-1.78,2.42-3.8,5.1-6.09,8a73,73,0,0,1-7.41,8.18,44,44,0,0,1-8.53,6.36A18.53,18.53,0,0,1,402.13,423.42Z" transform="translate(-124.5 -177)"/><path d="M472.88,396.29a1.58,1.58,0,0,1,1.25-.7,1.49,1.49,0,0,1,1.33.84,1.57,1.57,0,0,1-.21,1.82,49.18,49.18,0,0,1-10.56,12.23q-5.79,4.69-11.53,5.11a34.62,34.62,0,0,1-6.57,5.66,12.15,12.15,0,0,1-6.57,2.17,9,9,0,0,1-4.27-1.26,19,19,0,0,1-4.33-3.29,19.22,19.22,0,0,1-3.43-4.68,11.89,11.89,0,0,1-1.4-5.6,17.32,17.32,0,0,1,1.33-6.08,42.25,42.25,0,0,1,3.29-6.64,36.29,36.29,0,0,1,4.19-5.66,11.65,11.65,0,0,1,4.06-3.15,25.48,25.48,0,0,1,5.45-7.2,10.72,10.72,0,0,1,7.41-3.29,8.24,8.24,0,0,1,4.34,1.4,17.41,17.41,0,0,1,4,3.57,19.84,19.84,0,0,1,3,5,14.6,14.6,0,0,1,1.18,5.74,20.71,20.71,0,0,1-1.67,7.13,47.74,47.74,0,0,1-4.48,8.67,16.57,16.57,0,0,0,7.06-4.27Q469.25,400.49,472.88,396.29Zm-34.4,19.16q1.68,0,4.75-3.08a5.94,5.94,0,0,1-.42-2.1,4.4,4.4,0,0,1,1.82-4,7.51,7.51,0,0,1,4.2-1.19,59.56,59.56,0,0,0,5.31-10.42A29.17,29.17,0,0,0,456.38,384a2.59,2.59,0,0,0-.42-1.47,1.56,1.56,0,0,0-1.4-.63,4.83,4.83,0,0,0-2.52.77,10.79,10.79,0,0,0-2.38,2,19.67,19.67,0,0,0-2,2.73,22.06,22.06,0,0,0-1.47,2.73,10.19,10.19,0,0,1,2.17,3.63c.32,1.12-.07,1.68-1.19,1.68a5.65,5.65,0,0,0-3.43,1.54,18.16,18.16,0,0,0-3.56,4.05,27.88,27.88,0,0,0-2.87,5.67,17.53,17.53,0,0,0-1.19,6.22,3.08,3.08,0,0,0,.49,1.82A2.18,2.18,0,0,0,438.48,415.45Z" transform="translate(-124.5 -177)"/><path d="M521.53,396.29a1.71,1.71,0,0,1,1.4-.7,1.35,1.35,0,0,1,1.26.84,1.7,1.7,0,0,1-.28,1.82c-.1.19-.61,1-1.54,2.3s-2.07,2.94-3.43,4.76-2.89,3.77-4.61,5.87a77.76,77.76,0,0,1-5.31,5.87,35.43,35.43,0,0,1-5.38,4.48,9,9,0,0,1-4.76,1.75,5.82,5.82,0,0,1-2.31-.7,14.63,14.63,0,0,1-2.79-1.75,11.2,11.2,0,0,1-2.31-2.45,4.85,4.85,0,0,1-1-2.79q0-2.38,1.89-7.83t4.26-11.33q2.66-6.85,6.16-14.68a39.76,39.76,0,0,0-8,8q-4.2,5.31-8,11.18t-6.58,11.19a74.47,74.47,0,0,0-3.77,8,12.68,12.68,0,0,0-.21,1.26,7.37,7.37,0,0,0-.07,1c0,.65-.42,1-1.26,1a6.43,6.43,0,0,1-2.52-.7,18.41,18.41,0,0,1-3-1.75,10.18,10.18,0,0,1-2.45-2.45,4.85,4.85,0,0,1-1-2.79,17.42,17.42,0,0,1,1.05-4.9q1.05-3.21,2.66-7.13t3.42-8.11c1.21-2.8,2.36-5.43,3.43-7.9s2-4.61,2.66-6.43a12.9,12.9,0,0,0,1-3.71c0-.65.28-1,.84-1a4.74,4.74,0,0,1,2.31,1,23.05,23.05,0,0,1,2.87,2.31,16.54,16.54,0,0,1,2.37,2.8,4.8,4.8,0,0,1,1,2.58,27.57,27.57,0,0,1-1.95,5.6q2.37-2.94,4.89-5.53c1.68-1.72,3.28-3.23,4.82-4.54a26.73,26.73,0,0,1,4.34-3.08,7.52,7.52,0,0,1,3.42-1.12,5.67,5.67,0,0,1,2.52.84,14.64,14.64,0,0,1,2.94,2.17,17.84,17.84,0,0,1,2.44,2.87,5.09,5.09,0,0,1,1,2.79,9.29,9.29,0,0,1-.77,2.24l-1.89,4.48c-.74,1.77-1.56,3.65-2.44,5.66s-1.7,3.91-2.45,5.73-1.38,3.45-1.89,4.9a10.89,10.89,0,0,0-.76,3c0,.75.23,1.12.69,1.12,1.12,0,2.57-.74,4.34-2.24a57,57,0,0,0,5.24-5c1.73-1.86,3.29-3.66,4.69-5.38S521.16,396.76,521.53,396.29Z" transform="translate(-124.5 -177)"/><path d="M558.73,368.32a1.47,1.47,0,0,1,1.18.63,3.92,3.92,0,0,1,.7,1.4,2.82,2.82,0,0,1,.07,1.4.75.75,0,0,1-.83.63q-1.54,0-6,.35c-3,.23-6.24.54-9.79.91q-2.65,5.44-5.45,11.74t-5,12q-2.25,5.66-3.64,9.93a23.33,23.33,0,0,0-1.4,5.8c0,.93.42,1.4,1.26,1.4,1.77,0,3.85-.86,6.22-2.59a61.64,61.64,0,0,0,6.86-5.8q3.28-3.22,5.73-6.15t3-3.64a1.69,1.69,0,0,1,1.39-.7,1.35,1.35,0,0,1,1.26.84,1.68,1.68,0,0,1-.28,1.82c-.09.19-.61,1-1.54,2.3s-2.09,3-3.49,4.83-3,3.84-4.9,5.94a67.74,67.74,0,0,1-5.87,5.87,33.06,33.06,0,0,1-6.36,4.48,13.58,13.58,0,0,1-6.36,1.75,6.34,6.34,0,0,1-2.87-.84,14.82,14.82,0,0,1-3-2.1,11.14,11.14,0,0,1-2.3-2.87,6.53,6.53,0,0,1-.91-3.28,27.33,27.33,0,0,1,1.19-6.43q1.19-4.33,3.21-9.79t4.55-11.61q2.51-6.15,5.17-11.88l-2.38.21c-.65,0-1.16.07-1.53.07a2.73,2.73,0,0,1-2.31-1.26,8.65,8.65,0,0,1-1.33-2.73,6.84,6.84,0,0,1-.28-2.65c.09-.8.33-1.19.7-1.19a1.3,1.3,0,0,1,.63.21,6.42,6.42,0,0,0,1.26.49,16.73,16.73,0,0,0,2.66.49,41.38,41.38,0,0,0,4.68.2h1q3.35-7,6.08-11.53t4-4.54a7.39,7.39,0,0,1,3.49,1,11.56,11.56,0,0,1,3.08,2.38,8.25,8.25,0,0,1,1.74,2.8,2,2,0,0,1-.34,2.23,16,16,0,0,0-2.17,2.94q-1.2,2-2.73,4.61Z" transform="translate(-124.5 -177)"/><path d="M589.07,396.29a1.71,1.71,0,0,1,1.39-.7,1.35,1.35,0,0,1,1.26.84,1.68,1.68,0,0,1-.28,1.82c-.09.19-.6,1-1.53,2.3s-2.1,3-3.5,4.83-3,3.84-4.69,5.94a77.76,77.76,0,0,1-5.31,5.87,35,35,0,0,1-5.38,4.48,9,9,0,0,1-4.76,1.75,6,6,0,0,1-2.3-.7,14.7,14.7,0,0,1-2.8-1.75,11.45,11.45,0,0,1-2.31-2.45,4.84,4.84,0,0,1-1-2.79c0-1.59.62-4.2,1.88-7.83s2.68-7.41,4.27-11.33q2.65-6.85,6.15-14.68l.56-1.12c-.47.09-1,.19-1.54.28a27.19,27.19,0,0,1-3.63.84l-1.4,2q-1.12,1.6-2.8,4t-3.64,5.1c-1.3,1.82-2.61,3.57-3.91,5.25a1.61,1.61,0,0,1-1.26.7,1.52,1.52,0,0,1-1-2.66l4.48-5.87,2.79-4c1-1.44,1.91-2.82,2.66-4.12h-2a4.83,4.83,0,0,1-3.7-2.24,7,7,0,0,1-1.75-4.19,13.82,13.82,0,0,1,1.12-4.48,53.35,53.35,0,0,1,2.73-6,31.6,31.6,0,0,1,3.42-5.31c1.21-1.49,2.24-2.24,3.08-2.24a9,9,0,0,1,3.49.84,18.27,18.27,0,0,1,3.5,1.95,6.83,6.83,0,0,1,2.17,2.45,1.88,1.88,0,0,1-.35,2.31q-3.09,3.08-5.81,6.36t-4.82,5.66c1.58-.18,3-.32,4.33-.42a27.21,27.21,0,0,1,3.29-.34c1.07,0,1.84-.08,2.31-.08a5.6,5.6,0,0,1,2.51.84,14.1,14.1,0,0,1,2.94,2.17,17.9,17.9,0,0,1,2.45,2.87,5.06,5.06,0,0,1,1,2.79,9.29,9.29,0,0,1-.77,2.24c-.52,1.21-1.15,2.71-1.89,4.48s-1.56,3.65-2.45,5.66-1.7,3.91-2.45,5.73-1.37,3.45-1.88,4.9a10.65,10.65,0,0,0-.77,3c0,.75.23,1.12.7,1.12,1.12,0,2.56-.74,4.33-2.24a61.11,61.11,0,0,0,5.32-5.1c1.76-1.91,3.35-3.73,4.75-5.45Z" transform="translate(-124.5 -177)"/><path d="M630.87,396.29a1.59,1.59,0,0,1,1.26-.7,1.49,1.49,0,0,1,1.33.84,1.58,1.58,0,0,1-.21,1.82,49.18,49.18,0,0,1-10.56,12.23q-5.81,4.69-11.53,5.11a34.67,34.67,0,0,1-6.58,5.66,12.1,12.1,0,0,1-6.57,2.17,9,9,0,0,1-4.26-1.26,19.38,19.38,0,0,1-7.76-8,11.89,11.89,0,0,1-1.4-5.6,17.09,17.09,0,0,1,1.33-6.08,42.19,42.19,0,0,1,3.28-6.64,37,37,0,0,1,4.2-5.66,11.72,11.72,0,0,1,4.05-3.15,25.52,25.52,0,0,1,5.46-7.2,10.72,10.72,0,0,1,7.41-3.29,8.21,8.21,0,0,1,4.33,1.4,17.46,17.46,0,0,1,4.06,3.57,19.52,19.52,0,0,1,3,5,14.61,14.61,0,0,1,1.19,5.74,20.76,20.76,0,0,1-1.68,7.13,47.67,47.67,0,0,1-4.47,8.67,16.62,16.62,0,0,0,7.06-4.27Q627.23,400.49,630.87,396.29Zm-34.4,19.16q1.68,0,4.76-3.08a5.94,5.94,0,0,1-.42-2.1,4.38,4.38,0,0,1,1.82-4,7.5,7.5,0,0,1,4.19-1.19,59.59,59.59,0,0,0,5.32-10.42A29.35,29.35,0,0,0,614.37,384a2.59,2.59,0,0,0-.42-1.47,1.55,1.55,0,0,0-1.4-.63,4.8,4.8,0,0,0-2.51.77,10.79,10.79,0,0,0-2.38,2,19.73,19.73,0,0,0-2,2.73,23.31,23.31,0,0,0-1.46,2.73,10.15,10.15,0,0,1,2.16,3.63c.33,1.12-.07,1.68-1.19,1.68a5.65,5.65,0,0,0-3.42,1.54,18.44,18.44,0,0,0-3.57,4.05,27.86,27.86,0,0,0-2.86,5.67,17.32,17.32,0,0,0-1.19,6.22,3.08,3.08,0,0,0,.49,1.82A2.16,2.16,0,0,0,596.47,415.45Z" transform="translate(-124.5 -177)"/><path d="M654.64,349.59a7,7,0,0,1,3.43,1,11.73,11.73,0,0,1,3,2.37,8.55,8.55,0,0,1,1.75,2.8,2,2,0,0,1-.35,2.24,29.86,29.86,0,0,0-4.33,6.36q-2.52,4.55-5.25,10.35t-5.38,12q-2.65,6.23-4.82,11.54t-3.5,8.95a28.47,28.47,0,0,0-1.33,4.05c0,.75.28,1.12.84,1.12,1.12,0,2.56-.74,4.33-2.24a53.16,53.16,0,0,0,5.25-5.1q2.58-2.86,4.68-5.45c1.4-1.73,2.29-2.82,2.66-3.29a1.71,1.71,0,0,1,1.4-.7,1.35,1.35,0,0,1,1.26.84,1.7,1.7,0,0,1-.28,1.82c-.1.19-.61,1-1.54,2.3s-2.1,3-3.5,4.83-3,3.84-4.68,5.94-3.5,4.06-5.31,5.87a35,35,0,0,1-5.39,4.48,9,9,0,0,1-4.75,1.75,6,6,0,0,1-2.31-.7,14.63,14.63,0,0,1-2.79-1.75,11.2,11.2,0,0,1-2.31-2.45,4.85,4.85,0,0,1-1-2.79q0-2,1.89-7.62t4.82-13q2.94-7.34,6.5-15.38T644.57,365q3.36-6.72,6.09-11.05T654.64,349.59Z" transform="translate(-124.5 -177)"/></g></svg>